<svg style="position: absolute; width: 0; height: 0; overflow: hidden;" version="1.1" xmlns="http://www.w3.org/2000/svg" xmlns:xlink="http://www.w3.org/1999/xlink">
<defs>
<symbol id="phone" viewBox="0 0 512 512">
    <path d="M480.298 320.251L382.098 278.173C360.692 268.892 335.459 275.064 320.897 293.126L293.46 326.626C248.68 300.876 211.166 263.376 185.416 218.627L218.962 191.143C236.868 176.518 243.055 151.44 233.977 130.096L191.729 31.534C181.573 8.331 156.386 -4.325 131.855 1.347L40.608 22.409C16.703 27.862 0 48.831 0 73.393C0 315.251 196.744 512 438.581 512C463.142 512 484.111 495.313 489.579 471.469L510.641 380.126C516.36 355.47 503.61 330.314 480.298 320.251ZM463.877 369.313L442.799 460.719C442.331 462.719 440.69 464 438.581 464C223.212 464 47.999 288.783 47.999 73.393C47.999 71.3 49.295 69.659 51.342 69.19L142.683 48.112C142.996 48.034 143.324 48.003 143.636 48.003C145.371 48.003 146.996 49.05 147.683 50.612L189.822 148.94C190.572 150.705 190.072 152.768 188.573 154.002L139.793 193.971C131.168 201.033 128.543 213.111 133.449 223.111C166.464 290.345 221.712 345.563 288.991 378.594C298.991 383.501 311.085 380.876 318.147 372.251L358.161 323.376C359.271 321.97 361.349 321.439 363.083 322.251L461.346 364.345C463.221 365.157 464.346 367.345 463.892 369.313H463.877Z"></path>
  </symbol>
  <symbol id="envelope" viewBox="0 0 512 512">
    <path d="M448 64H64C28.654 64 0 92.654 0 128V384C0 419.346 28.654 448 64 448H448C483.348 448 512 419.346 512 384V128C512 92.654 483.348 64 448 64ZM64 112H448C456.822 112 464 119.178 464 128V150.162L297.25 289.141C274.062 308.422 237.906 308.406 214.781 289.156L48 150.162V128C48 119.178 55.178 112 64 112ZM448 400H64C55.178 400 48 392.822 48 384V212.662L184.062 326.047C204.25 342.828 229.781 352.078 256 352.078S307.75 342.828 327.969 326.031L464 212.664V384C464 392.822 456.822 400 448 400Z"></path>
  </symbol>
  <symbol id="facebook-f" viewBox="0 0 320 512">
    <path d="M279.14 288l14.22-92.66h-88.91v-60.13c0-25.35 12.42-50.06 52.24-50.06h40.42V6.26S260.43 0 225.36 0c-73.22 0-121.08 44.38-121.08 124.72v70.62H22.89V288h81.39v224h100.17V288z"></path>
  </symbol>
  <symbol id="facebook" viewBox="0 0 512 512">
    <path d="M504 256C504 119 393 8 256 8S8 119 8 256c0 123.78 90.69 226.38 209.25 245V327.69h-63V256h63v-54.64c0-62.15 37-96.48 93.67-96.48 27.14 0 55.52 4.84 55.52 4.84v61h-31.28c-30.8 0-40.41 19.12-40.41 38.73V256h68.78l-11 71.69h-57.78V501C413.31 482.38 504 379.78 504 256z"></path>
  </symbol>
  <symbol id="instagram" viewBox="0 0 448 512">
    <path d="M224.1 141c-63.6 0-114.9 51.3-114.9 114.9s51.3 114.9 114.9 114.9S339 319.5 339 255.9 287.7 141 224.1 141zm0 189.6c-41.1 0-74.7-33.5-74.7-74.7s33.5-74.7 74.7-74.7 74.7 33.5 74.7 74.7-33.6 74.7-74.7 74.7zm146.4-194.3c0 14.9-12 26.8-26.8 26.8-14.9 0-26.8-12-26.8-26.8s12-26.8 26.8-26.8 26.8 12 26.8 26.8zm76.1 27.2c-1.7-35.9-9.9-67.7-36.2-93.9-26.2-26.2-58-34.4-93.9-36.2-37-2.1-147.9-2.1-184.9 0-35.8 1.7-67.6 9.9-93.9 36.1s-34.4 58-36.2 93.9c-2.1 37-2.1 147.9 0 184.9 1.7 35.9 9.9 67.7 36.2 93.9s58 34.4 93.9 36.2c37 2.1 147.9 2.1 184.9 0 35.9-1.7 67.7-9.9 93.9-36.2 26.2-26.2 34.4-58 36.2-93.9 2.1-37 2.1-147.8 0-184.8zM398.8 388c-7.8 19.6-22.9 34.7-42.6 42.6-29.5 11.7-99.5 9-132.1 9s-102.7 2.6-132.1-9c-19.6-7.8-34.7-22.9-42.6-42.6-11.7-29.5-9-99.5-9-132.1s-2.6-102.7 9-132.1c7.8-19.6 22.9-34.7 42.6-42.6 29.5-11.7 99.5-9 132.1-9s102.7-2.6 132.1 9c19.6 7.8 34.7 22.9 42.6 42.6 11.7 29.5 9 99.5 9 132.1s2.7 102.7-9 132.1z"></path>
  </symbol>
  <symbol id="whatsapp" viewBox="0 0 448 512">
    <path d="M380.9 97.1C339 55.1 283.2 32 223.9 32c-122.4 0-222 99.6-222 222 0 39.1 10.2 77.3 29.6 111L0 480l117.7-30.9c32.4 17.7 68.9 27 106.1 27h.1c122.3 0 224.1-99.6 224.1-222 0-59.3-25.2-115-67.1-157zm-157 341.6c-33.2 0-65.7-8.9-94-25.7l-6.7-4-69.8 18.3L72 359.2l-4.4-7c-18.5-29.4-28.2-63.3-28.2-98.2 0-101.7 82.8-184.5 184.6-184.5 49.3 0 95.6 19.2 130.4 54.1 34.8 34.9 56.2 81.2 56.1 130.5 0 101.8-84.9 184.6-186.6 184.6zm101.2-138.2c-5.5-2.8-32.8-16.2-37.9-18-5.1-1.9-8.8-2.8-12.5 2.8-3.7 5.6-14.3 18-17.6 21.8-3.2 3.7-6.5 4.2-12 1.4-32.6-16.3-54-29.1-75.5-66-5.7-9.8 5.7-9.1 16.3-30.3 1.8-3.7.9-6.9-.5-9.7-1.4-2.8-12.5-30.1-17.1-41.2-4.5-10.8-9.1-9.3-12.5-9.5-3.2-.2-6.9-.2-10.6-.2-3.7 0-9.7 1.4-14.8 6.9-5.1 5.6-19.4 19-19.4 46.3 0 27.3 19.9 53.7 22.6 57.4 2.8 3.7 39.1 59.7 94.8 83.8 35.2 15.2 49 16.5 66.6 13.9 10.7-1.6 32.8-13.4 37.4-26.4 4.6-13 4.6-24.1 3.2-26.4-1.3-2.5-5-3.9-10.5-6.6z"></path>
  </symbol>
  <symbol id="tiktok" viewBox="0 0 448 512">
    <path d="M448,209.91a210.06,210.06,0,0,1-122.77-39.25V349.38A162.55,162.55,0,1,1,185,188.31V278.2a74.62,74.62,0,1,0,52.23,71.18V0l88,0a121.18,121.18,0,0,0,1.86,22.17h0A122.18,122.18,0,0,0,381,102.39a121.43,121.43,0,0,0,67,20.14Z"></path>
  </symbol>
  <symbol id="location" viewBox="0 0 384 512">
    <path d="M192 0C85.969 0 0 85.969 0 192C0 269.41 26.969 291.035 172.281 501.676C177.047 508.559 184.523 512 192 512S206.953 508.559 211.719 501.676C357.031 291.035 384 269.41 384 192C384 85.969 298.031 0 192 0ZM192 445.836C174.307 420.371 158.582 397.969 144.623 378.086C57.562 254.066 48 238.875 48 192C48 112.598 112.598 48 192 48S336 112.598 336 192C336 238.875 326.438 254.066 239.377 378.086C225.412 397.98 209.684 420.383 192 445.836ZM192 112C147.818 112 112 147.816 112 192S147.818 272 192 272C236.184 272 272 236.184 272 192S236.184 112 192 112ZM192 224C174.355 224 160 209.645 160 192S174.355 160 192 160S224 174.355 224 192S209.645 224 192 224Z"></path>
  </symbol>
  <symbol id="left" viewBox="0 0 512 512">
    <path d="M256 16C123.453 16 16 123.453 16 256S123.453 496 256 496S496 388.547 496 256S388.547 16 256 16ZM256 448C150.133 448 64 361.867 64 256S150.133 64 256 64S448 150.133 448 256S361.867 448 256 448ZM304.969 127.031C295.594 117.656 280.406 117.656 271.031 127.031L159.031 239.031C154.344 243.719 152 249.844 152 256S154.344 268.281 159.031 272.969L271.031 384.969C280.406 394.344 295.594 394.344 304.969 384.969S314.344 360.406 304.969 351.031L209.938 256L304.969 160.969C314.344 151.594 314.344 136.406 304.969 127.031Z"></path>
  </symbol>
  <symbol id="right" viewBox="0 0 512 512">
    <path d="M240.969 127.031C231.594 117.656 216.406 117.656 207.031 127.031S197.656 151.594 207.031 160.969L302.062 256L207.031 351.031C197.656 360.406 197.656 375.594 207.031 384.969S231.594 394.344 240.969 384.969L352.969 272.969C357.656 268.281 360 262.156 360 256S357.656 243.719 352.969 239.031L240.969 127.031ZM256 16C123.453 16 16 123.453 16 256S123.453 496 256 496S496 388.547 496 256S388.547 16 256 16ZM256 448C150.133 448 64 361.867 64 256S150.133 64 256 64S448 150.133 448 256S361.867 448 256 448Z"></path>
  </symbol>
  
</defs>
</svg>
